<?xml version="1.0" standalone="no"?><!DOCTYPE svg PUBLIC "-//W3C//DTD SVG 1.1//EN" "http://www.w3.org/Graphics/SVG/1.1/DTD/svg11.dtd"><svg t="1573048154868" class="icon" viewBox="0 0 1024 1024" version="1.1" xmlns="http://www.w3.org/2000/svg" p-id="2051" xmlns:xlink="http://www.w3.org/1999/xlink" width="200" height="200"><defs><style type="text/css"></style></defs><path d="M561.215832 1023.858778l-94.865812 0c-37.211971 0-67.504068-30.292098-67.504068-67.504068l0-135.131706c-6.937526-2.559647-13.769135-5.331127-20.512481-8.349745l-96.542822 96.578127c-25.4729 25.419942-69.993104 25.437595-95.448352 0.035305L119.226589 842.370983c-26.302579-26.337884-26.284926-69.163426 0-95.466005l95.589574-95.571921c-3.106882-6.70804-5.966625-13.504344-8.596883-20.371259L69.64005 630.961798c-37.229624 0-67.521721-30.274445-67.521721-67.486416l0-94.865812c0-37.229624 30.292098-67.521721 67.521721-67.521721l135.131706 0c2.541994-6.937526 5.313474-13.769135 8.314439-20.494828l-96.560474-96.560474c-26.302579-26.337884-26.302579-69.145773 0-95.466005l67.080403-67.080403c25.437595-25.455248 70.02841-25.455248 95.466005 0l95.571921 95.571921c6.690388-3.089229 13.486691-5.948973 20.371259-8.596883L395.015308 71.864295c0-37.229624 30.274445-67.521721 67.486416-67.521721l94.883464 0c37.229624 0 67.521721 30.292098 67.521721 67.521721l0 135.149359c6.937526 2.541994 13.751483 5.313474 20.477176 8.332092l96.578127-96.560474c25.384637-25.419942 70.010757-25.455248 95.466005 0.017653l67.06275 67.045097c12.745277 12.745277 19.735761 29.709557 19.735761 47.750655 0 18.058751-7.008137 35.005379-19.735761 47.733002L808.919046 376.885947c3.106882 6.690388 5.966625 13.486691 8.596883 20.371259l136.57923 0c37.211971 0 67.504068 30.274445 67.504068 67.504068l0 94.848159c0 37.229624-30.292098 67.521721-67.504068 67.521721L818.981106 627.131154c-2.559647 6.937526-5.331127 13.751483-8.332092 20.477176l96.560474 96.59578c12.727624 12.727624 19.718108 29.674252 19.718108 47.71535s-6.990484 34.987726-19.718108 47.71535l-67.080403 67.080403c-25.366984 25.437595-70.02841 25.525859-95.483657-0.017653l-95.554268-95.536616c-6.690388 3.089229-13.504344 5.966625-20.371259 8.57923l0 136.596883C628.702248 993.56668 598.427803 1023.858778 561.215832 1023.858778zM469.456902 953.247828l88.634395 0 0-158.839333c0-15.710936 10.37981-29.515377 25.437595-33.910909 19.135568-5.54296 37.582678-13.363122 54.864708-23.178044 13.822094-7.855468 31.192387-5.54296 42.401876 5.719487l111.565301 111.547649 62.684871-62.684871-112.289064-112.306716c-11.121225-11.121225-13.557302-28.24438-5.966625-41.995863 9.567784-17.370294 17.105503-35.923321 22.401324-55.164805 4.219004-15.304923 18.147014-25.931871 34.052131-25.931871l157.762516 0 0-88.652048-158.839333 0c-15.710936 0-29.53303-10.37981-33.910909-25.455248-5.54296-19.100262-13.34547-37.565026-23.178044-54.882361-7.837815-13.804441-5.507654-31.174735 5.73714-42.401876l111.565301-111.565301-62.684871-62.667218-112.306716 112.289064c-11.103572 11.085919-28.191422 13.53965-41.995863 5.948973-17.352641-9.567784-35.923321-17.08785-55.164805-22.401324-15.322576-4.219004-25.931871-18.147014-25.931871-34.034478L554.295959 74.953524l-88.652048 0 0 158.856985c0 15.693284-10.362157 29.515377-25.437595 33.893256-19.135568 5.560612-37.600331 13.363122-54.882361 23.178044-13.822094 7.837815-31.192387 5.507654-42.401876-5.73714l-111.565301-111.565301L168.654255 236.281892l112.289064 112.289064c11.121225 11.103572 13.53965 28.226727 5.966625 41.995863-9.550131 17.317336-17.070197 35.888015-22.383671 55.164805-4.219004 15.322576-18.147014 25.931871-34.034478 25.931871L72.729279 471.663495l0 88.652048 158.839333 0c15.710936 0 29.515377 10.37981 33.910909 25.455248 5.525307 19.029651 13.327817 37.494415 23.195697 54.864708 7.837815 13.804441 5.507654 31.174735-5.73714 42.384223l-111.565301 111.565301 62.684871 62.702524 112.289064-112.306716c11.121225-11.103572 28.24438-13.557302 41.995863-5.966625 17.405599 9.567784 35.976279 17.105503 55.164805 22.383671 15.340229 4.201352 25.967177 18.147014 25.967177 34.052131L469.474555 953.247828z" p-id="2052" fill="#ffffff"></path><path d="M511.876431 715.394842c-111.018066 0-201.311819-90.293753-201.311819-201.294166s90.311405-201.311819 201.311819-201.311819c111.000414 0 201.294166 90.311405 201.294166 201.311819S622.876845 715.394842 511.876431 715.394842zM511.876431 383.399807c-72.076127 0-130.700869 58.624741-130.700869 130.700869 0 72.058475 58.642394 130.683216 130.700869 130.683216 72.058475 0 130.683216-58.624741 130.683216-130.683216C642.559647 442.042201 583.934906 383.399807 511.876431 383.399807z" p-id="2053" fill="#ffffff"></path></svg>